REM DIRINDEX 1\2,1\3,1\4,1\5
REM DIRNAME cjc004,folder01,folder02,folder03,folder04
TITLE ""
FILE "1Q_t_0030-0039.mp3" MP3
  TRACK 01 AUDIO
    TITLE "3:cjc004_0990"
    INDEX 01 00:00:00
  TRACK 02 AUDIO
    TITLE "0:"
    INDEX 01 00:01:03
  TRACK 03 AUDIO
    TITLE "4:cjc004_0991"
    INDEX 01 00:01:24
  TRACK 04 AUDIO
    TITLE "0:"
    INDEX 01 00:02:51
  TRACK 05 AUDIO
    TITLE "5:cjc004_0992"
    INDEX 01 00:03:02
  TRACK 06 AUDIO
    TITLE "0:"
    INDEX 01 00:07:62
  TRACK 07 AUDIO
    TITLE "3:cjc004_0993"
    INDEX 01 00:08:44
  TRACK 08 AUDIO
    TITLE "0:"
    INDEX 01 00:09:57
  TRACK 09 AUDIO
    TITLE "4:cjc004_0994"
    INDEX 01 00:10:08
  TRACK 10 AUDIO
    TITLE "0:"
    INDEX 01 00:11:05
  TRACK 11 AUDIO
    TITLE "5:cjc004_0995"
    INDEX 01 00:11:39
  TRACK 12 AUDIO
    TITLE "0:"
    INDEX 01 00:16:14
  TRACK 13 AUDIO
    TITLE "3:cjc004_0996"
    INDEX 01 00:16:69
  TRACK 14 AUDIO
    TITLE "0:"
    INDEX 01 00:18:17
  TRACK 15 AUDIO
    TITLE "4:cjc004_0997"
    INDEX 01 00:18:56
  TRACK 16 AUDIO
    TITLE "0:"
    INDEX 01 00:20:36
  TRACK 17 AUDIO
    TITLE "5:cjc004_0998"
    INDEX 01 00:20:69
  TRACK 18 AUDIO
    TITLE "0:"
    INDEX 01 00:26:71
  TRACK 19 AUDIO
    TITLE "3:cjc004_0999"
    INDEX 01 00:27:65
  TRACK 20 AUDIO
    TITLE "0:"
    INDEX 01 00:29:05
  TRACK 21 AUDIO
    TITLE "4:cjc004_1000"
    INDEX 01 00:29:31
  TRACK 22 AUDIO
    TITLE "0:"
    INDEX 01 00:30:48
  TRACK 23 AUDIO
    TITLE "5:cjc004_1001"
    INDEX 01 00:31:06
  TRACK 24 AUDIO
    TITLE "0:"
    INDEX 01 00:36:29
  TRACK 25 AUDIO
    TITLE "3:cjc004_1002"
    INDEX 01 00:37:07
  TRACK 26 AUDIO
    TITLE "0:"
    INDEX 01 00:38:24
  TRACK 27 AUDIO
    TITLE "4:cjc004_1003"
    INDEX 01 00:38:53
  TRACK 28 AUDIO
    TITLE "0:"
    INDEX 01 00:39:72
  TRACK 29 AUDIO
    TITLE "5:cjc004_1004"
    INDEX 01 00:40:34
  TRACK 30 AUDIO
    TITLE "0:"
    INDEX 01 00:46:00
  TRACK 31 AUDIO
    TITLE "3:cjc004_1005"
    INDEX 01 00:46:64
  TRACK 32 AUDIO
    TITLE "0:"
    INDEX 01 00:48:04
  TRACK 33 AUDIO
    TITLE "4:cjc004_1006"
    INDEX 01 00:48:32
  TRACK 34 AUDIO
    TITLE "0:"
    INDEX 01 00:49:57
  TRACK 35 AUDIO
    TITLE "5:cjc004_1007"
    INDEX 01 00:50:09
  TRACK 36 AUDIO
    TITLE "0:"
    INDEX 01 00:54:74
  TRACK 37 AUDIO
    TITLE "3:cjc004_1008"
    INDEX 01 00:55:50
  TRACK 38 AUDIO
    TITLE "0:"
    INDEX 01 00:56:59
  TRACK 39 AUDIO
    TITLE "4:cjc004_1009"
    INDEX 01 00:56:71
  TRACK 40 AUDIO
    TITLE "0:"
    INDEX 01 00:58:26
  TRACK 41 AUDIO
    TITLE "5:cjc004_1010"
    INDEX 01 00:58:54
  TRACK 42 AUDIO
    TITLE "0:"
    INDEX 01 01:04:68
  TRACK 43 AUDIO
    TITLE "3:cjc004_1011"
    INDEX 01 01:05:52
  TRACK 44 AUDIO
    TITLE "0:"
    INDEX 01 01:06:65
  TRACK 45 AUDIO
    TITLE "4:cjc004_1012"
    INDEX 01 01:07:14
  TRACK 46 AUDIO
    TITLE "0:"
    INDEX 01 01:08:44
  TRACK 47 AUDIO
    TITLE "5:cjc004_1013"
    INDEX 01 01:09:03
  TRACK 48 AUDIO
    TITLE "0:"
    INDEX 01 01:13:32
  TRACK 49 AUDIO
    TITLE "3:cjc004_1014"
    INDEX 01 01:14:17
  TRACK 50 AUDIO
    TITLE "0:"
    INDEX 01 01:15:39
  TRACK 51 AUDIO
    TITLE "4:cjc004_1015"
    INDEX 01 01:15:64
  TRACK 52 AUDIO
    TITLE "0:"
    INDEX 01 01:17:18
  TRACK 53 AUDIO
    TITLE "5:cjc004_1016"
    INDEX 01 01:17:43
  TRACK 54 AUDIO
    TITLE "0:"
    INDEX 01 01:21:74
  TRACK 55 AUDIO
    TITLE "3:cjc004_1017"
    INDEX 01 01:22:58
  TRACK 56 AUDIO
    TITLE "0:"
    INDEX 01 01:24:02
  TRACK 57 AUDIO
    TITLE "4:cjc004_1018"
    INDEX 01 01:24:34
  TRACK 58 AUDIO
    TITLE "0:"
    INDEX 01 01:25:53
  TRACK 59 AUDIO
    TITLE "5:cjc004_1019"
    INDEX 01 01:26:11
  TRACK 60 AUDIO
    TITLE "0:"
    INDEX 01 01:31:14
